<?xml version="1.0" standalone="no"?>
<!DOCTYPE svg PUBLIC "-//W3C//DTD SVG 20010904//EN"
 "http://www.w3.org/TR/2001/REC-SVG-20010904/DTD/svg10.dtd">
<svg version="1.0" xmlns="http://www.w3.org/2000/svg"
 width="1500.000000pt" height="1500.000000pt" viewBox="0 0 1500.000000 1500.000000"
 preserveAspectRatio="xMidYMid meet">

<g transform="translate(0.000000,1500.000000) scale(0.100000,-0.100000)"
fill="#000000" stroke="none">
<path d="M4130 9510 c0 -5 7 -10 15 -10 8 0 15 5 15 10 0 6 -7 10 -15 10 -8 0
-15 -4 -15 -10z"/>
<path d="M4000 9471 c0 -6 5 -13 10 -16 6 -3 10 -15 10 -26 0 -11 6 -22 14
-25 8 -3 13 -11 10 -18 -3 -9 -16 -2 -38 20 -19 19 -39 34 -45 34 -18 0 -26
-31 -10 -40 7 -5 10 -12 6 -17 -4 -4 -16 -2 -25 3 -19 12 -62 1 -62 -15 0 -5
-13 -14 -30 -19 -16 -6 -47 -24 -67 -40 -24 -19 -56 -32 -86 -37 -29 -4 -55
-14 -65 -26 -9 -10 -24 -19 -33 -19 -9 0 -24 -9 -34 -20 -10 -11 -29 -20 -42
-20 -13 0 -34 -11 -46 -24 -12 -12 -39 -26 -60 -30 -21 -4 -41 -14 -44 -22 -3
-7 -15 -14 -28 -14 -12 0 -39 -7 -59 -15 -55 -23 -266 -59 -401 -70 -33 -2
-71 -7 -85 -11 -14 -3 -34 -6 -45 -6 -11 0 -85 3 -165 5 -122 4 -148 3 -162
-10 -17 -15 -18 -14 -18 3 -1 18 -1 18 -14 2 -17 -23 -22 -23 -29 2 -3 11 -12
20 -21 20 -9 0 -16 -8 -16 -20 0 -21 -33 -29 -45 -10 -4 7 -13 7 -26 0 -11 -6
-24 -8 -29 -5 -22 14 -116 23 -134 13 -12 -7 -26 -7 -40 0 -45 22 -56 22 -56
2 0 -12 -7 -20 -16 -20 -12 0 -15 -6 -10 -24 4 -18 2 -23 -11 -22 -10 0 -19
-8 -21 -19 -2 -11 -8 -22 -12 -25 -12 -8 -42 -71 -37 -77 3 -2 -3 -13 -14 -24
-10 -10 -19 -28 -19 -38 0 -11 -5 -23 -11 -27 -6 -3 -18 -23 -26 -43 -8 -20
-28 -54 -44 -76 -91 -125 -189 -297 -167 -293 7 2 14 -4 14 -12 1 -8 2 -19 3
-24 0 -5 7 -3 15 3 25 21 55 -6 51 -48 l-3 -35 24 27 c23 27 47 40 25 14 -8
-11 -6 -20 9 -37 11 -13 20 -29 20 -36 0 -7 3 -19 6 -28 4 -10 1 -16 -9 -16
-10 0 -13 -7 -10 -21 4 -13 11 -18 20 -14 12 4 14 0 9 -18 -4 -17 0 -25 16
-32 12 -6 24 -17 26 -25 4 -12 2 -13 -9 -2 -7 6 -21 12 -32 12 -18 0 -18 -1 1
-25 17 -21 18 -29 9 -50 -13 -28 -27 -33 -27 -10 0 8 -7 15 -15 15 -8 0 -14 5
-13 11 2 6 -3 14 -10 16 -7 3 -11 -1 -10 -8 2 -7 -5 -15 -15 -17 -21 -4 -35
27 -16 38 7 5 11 12 7 15 -3 4 -15 -4 -27 -16 -21 -22 -22 -22 -39 -5 -12 14
-14 20 -4 23 19 7 14 23 -9 23 -11 0 -17 4 -14 11 4 5 -7 15 -24 22 -31 11
-44 30 -17 25 8 -2 15 0 15 5 2 23 0 29 -13 24 -8 -3 -20 0 -26 8 -15 18 -45
8 -60 -21 -7 -13 -16 -21 -20 -19 -14 9 -40 -75 -40 -129 0 -52 1 -53 40 -71
22 -10 47 -26 56 -36 10 -11 23 -19 30 -19 7 0 23 -13 35 -30 12 -16 35 -34
51 -39 15 -5 28 -16 28 -23 0 -11 80 -68 96 -68 3 0 10 -5 17 -10 7 -6 46 -34
87 -62 41 -28 94 -64 118 -80 23 -16 42 -34 42 -40 0 -10 -5 -7 -131 76 -41
27 -117 76 -169 109 -52 33 -117 78 -145 99 -81 63 -216 148 -235 148 -16 0
-58 -37 -49 -43 2 -2 28 -14 57 -27 28 -13 52 -27 52 -31 0 -4 10 -9 22 -11
12 -2 23 -9 26 -15 6 -20 -16 -15 -51 10 -52 37 -145 64 -113 32 8 -8 22 -15
30 -15 9 0 16 -7 16 -15 0 -18 -56 -49 -76 -41 -7 3 -16 1 -19 -4 -4 -6 -1
-10 4 -10 6 0 11 -5 11 -11 0 -6 -7 -9 -15 -6 -8 4 -17 2 -20 -3 -3 -4 0 -10
7 -12 18 -6 1 -38 -20 -38 -13 0 -25 -16 -40 -53 -12 -29 -22 -58 -22 -64 0
-6 24 -19 53 -28 95 -32 86 -48 -11 -20 -29 9 -56 14 -60 11 -5 -3 -15 -24
-22 -48 -7 -24 -18 -49 -23 -55 -10 -14 8 -43 27 -43 11 0 267 -90 275 -96 2
-2 2 -7 -2 -10 -6 -7 -104 24 -215 67 -40 16 -79 29 -87 29 -8 0 -19 -18 -26
-42 -7 -24 -17 -48 -22 -55 -5 -7 -6 -21 -2 -32 3 -11 2 -28 -4 -38 -5 -10
-15 -44 -22 -75 -13 -63 -4 -88 31 -88 10 0 81 -22 157 -49 76 -28 176 -62
223 -76 47 -14 144 -44 215 -66 72 -22 144 -45 162 -50 33 -10 65 -39 44 -39
-21 0 -639 203 -750 247 -36 14 -67 21 -72 16 -10 -10 -33 -123 -26 -129 20
-21 947 -331 1067 -358 29 -6 67 -32 59 -40 -9 -10 -783 240 -997 322 -85 32
-147 51 -153 45 -19 -19 -47 -89 -40 -101 4 -8 37 -24 72 -37 35 -12 119 -43
186 -68 140 -53 675 -233 808 -272 50 -15 124 -38 165 -50 41 -13 107 -33 146
-44 64 -19 136 -61 104 -61 -32 0 -470 136 -795 247 -295 101 -325 111 -512
182 -89 34 -169 61 -177 61 -8 0 -17 -10 -21 -22 -3 -13 -11 -40 -17 -61 -7
-23 -8 -41 -2 -47 11 -11 189 -81 264 -104 30 -9 64 -21 75 -26 75 -34 824
-264 1389 -427 56 -16 106 -46 106 -63 0 -10 -17 -6 -155 35 -60 18 -137 41
-170 50 -160 44 -486 145 -790 245 -358 118 -445 149 -668 234 -37 14 -67 25
-67 23 0 -1 -9 -27 -20 -57 -11 -30 -16 -57 -12 -61 17 -17 1426 -477 1647
-539 44 -12 100 -30 125 -40 25 -9 92 -32 150 -49 215 -66 267 -84 290 -103
12 -10 21 -20 19 -22 -2 -2 -56 12 -119 30 -63 19 -155 46 -205 60 -100 28
-242 72 -635 198 -375 120 -675 221 -1178 396 -51 17 -99 30 -106 27 -15 -6
-39 -89 -28 -98 4 -3 32 -11 62 -18 30 -8 154 -47 275 -88 121 -41 234 -78
250 -83 31 -9 159 -52 705 -240 179 -61 341 -116 360 -122 38 -11 223 -72 280
-93 19 -7 64 -21 100 -31 36 -9 70 -21 75 -24 10 -7 132 -45 290 -91 103 -30
154 -51 184 -78 41 -36 58 -41 -444 116 -248 77 -568 183 -975 324 -129 44
-266 91 -305 104 -38 13 -128 45 -200 70 -352 126 -625 215 -656 215 -21 0
-27 -7 -36 -42 -23 -82 -24 -81 37 -95 30 -7 78 -20 105 -28 298 -89 555 -170
775 -243 146 -49 351 -117 455 -152 105 -34 198 -67 209 -72 10 -5 39 -16 65
-23 25 -7 186 -61 356 -120 171 -59 332 -113 359 -120 27 -8 72 -23 100 -34
45 -17 155 -52 461 -148 50 -16 112 -42 138 -58 44 -28 58 -45 39 -45 -20 0
-1492 485 -1547 510 -11 4 -117 41 -235 80 -118 40 -285 96 -370 125 -157 54
-754 248 -800 260 -14 3 -56 15 -95 25 -38 11 -74 15 -78 11 -11 -11 -26 -77
-27 -113 0 -25 4 -28 32 -28 28 0 312 -70 428 -105 151 -46 424 -132 535 -169
72 -24 245 -81 385 -126 249 -81 276 -90 323 -109 12 -6 193 -67 402 -136 209
-70 396 -133 415 -140 33 -13 440 -144 675 -218 61 -19 153 -47 205 -62 97
-28 180 -70 180 -92 0 -17 1 -17 -120 18 -58 17 -141 41 -185 54 -44 12 -343
111 -665 219 -1573 530 -2057 688 -2478 812 -45 13 -96 24 -112 24 -25 0 -30
-5 -35 -33 -4 -18 -5 -50 -3 -72 3 -37 4 -38 48 -42 67 -6 249 -53 560 -145
84 -24 520 -160 570 -177 30 -10 123 -40 205 -66 83 -26 173 -55 200 -65 28
-10 61 -22 75 -25 14 -4 75 -24 135 -45 61 -20 211 -70 335 -110 124 -40 268
-87 320 -106 122 -42 311 -105 570 -187 385 -123 481 -151 699 -207 124 -32
201 -69 201 -97 0 -9 -6 -13 -14 -10 -8 3 -72 20 -142 37 -273 67 -586 163
-1099 337 -576 196 -1447 484 -1650 547 -115 35 -237 74 -270 85 -105 36 -380
116 -623 182 -139 37 -142 36 -142 -39 0 -43 31 -95 44 -74 4 7 16 7 34 1 15
-5 72 -20 127 -35 123 -32 200 -52 243 -65 17 -5 47 -13 65 -18 63 -18 212
-61 242 -70 258 -79 457 -141 805 -251 124 -39 254 -81 290 -92 36 -11 103
-32 150 -48 47 -15 207 -67 355 -115 149 -48 308 -100 354 -116 147 -51 698
-219 921 -281 93 -25 296 -71 476 -108 34 -7 74 -23 90 -36 l29 -23 -38 -1
c-21 0 -68 6 -105 14 -37 8 -110 22 -162 31 -288 52 -716 177 -1505 440 -813
271 -1596 521 -1790 572 -11 3 -60 18 -110 33 -49 16 -133 40 -185 54 -52 15
-104 31 -115 35 -23 10 -170 49 -200 53 -18 3 -20 -3 -20 -56 0 -45 4 -60 15
-62 15 -2 59 -13 130 -32 150 -41 759 -217 945 -274 363 -111 696 -215 875
-273 91 -29 273 -88 405 -130 132 -42 292 -94 355 -114 111 -36 143 -46 350
-110 201 -61 243 -73 545 -151 80 -20 475 -94 705 -131 41 -7 86 -18 100 -25
l25 -13 -30 0 c-71 0 -381 44 -600 84 -241 44 -641 141 -815 198 -41 13 -115
36 -165 51 -69 21 -807 262 -1275 416 -30 10 -131 41 -225 70 -93 29 -204 63
-245 77 -95 31 -267 83 -390 118 -52 15 -147 43 -210 62 -63 19 -146 44 -185
54 -38 11 -90 26 -115 34 -62 20 -140 42 -173 49 l-27 6 0 -70 c0 -38 2 -70 4
-70 3 0 121 -30 263 -66 142 -36 285 -72 317 -80 241 -59 882 -258 801 -250
-142 16 -255 38 -400 81 -88 25 -180 52 -205 59 -58 17 -472 129 -615 167 -60
16 -122 29 -137 29 -26 0 -28 -3 -28 -45 0 -51 2 -52 110 -81 81 -22 187 -51
254 -69 74 -19 85 -26 60 -36 -39 -15 -103 -8 -245 28 -80 20 -152 34 -160 31
-11 -4 -14 -16 -11 -41 4 -39 0 -37 137 -79 72 -22 80 -27 77 -48 -1 -13 -4
-26 -7 -28 -2 -2 -35 3 -74 12 -94 22 -122 21 -114 -1 4 -10 14 -23 22 -30 14
-11 14 -12 -1 -13 -46 -1 4 -50 51 -50 9 0 26 -6 36 -14 18 -13 18 -14 -8 -40
-14 -14 -35 -26 -46 -26 -26 0 -48 -38 -27 -46 8 -3 24 0 35 6 18 9 27 7 52
-10 29 -21 67 -21 54 0 -3 5 1 10 9 10 9 0 16 -5 16 -11 0 -6 10 -10 23 -9 40
4 42 0 12 -20 l-30 -20 30 -1 c17 0 38 -4 49 -8 15 -6 10 -10 -28 -25 -27 -11
-46 -24 -46 -33 0 -13 10 -15 58 -10 32 4 66 9 75 13 9 3 17 2 17 -2 0 -5 -35
-20 -78 -33 -75 -24 -100 -36 -91 -45 4 -4 97 8 148 19 38 8 43 -12 6 -21 -14
-3 -25 -10 -25 -16 0 -5 -6 -8 -12 -7 -23 5 -98 -12 -104 -23 -7 -11 138 -5
184 8 26 7 30 -10 6 -24 -9 -5 -16 -22 -16 -38 0 -16 -5 -35 -10 -41 -7 -9 -7
-13 1 -13 6 0 11 -10 11 -22 0 -13 0 -32 1 -43 3 -38 76 -125 104 -125 8 0 17
-5 20 -10 11 -17 76 -42 230 -89 153 -46 208 -61 221 -61 8 0 31 -11 52 -24
79 -49 118 -189 125 -441 2 -73 4 -80 23 -83 12 -2 30 -12 40 -23 17 -19 17
-20 -2 -34 -10 -8 -26 -13 -35 -11 -9 2 -26 -2 -38 -8 l-22 -12 28 -13 c65
-30 173 -42 424 -48 166 -4 294 -2 366 6 149 15 884 16 949 0 33 -8 162 -11
384 -11 316 1 502 13 524 33 6 5 20 9 32 9 37 0 38 18 2 34 -31 14 -32 14 -8
16 l25 1 -25 10 c-14 6 -39 8 -57 4 -17 -3 -34 -1 -37 4 -3 5 -24 12 -46 16
l-40 7 30 42 c24 32 34 63 45 127 60 368 71 399 153 441 65 34 124 43 357 58
292 18 355 27 380 50 17 16 35 20 90 20 46 0 74 5 84 15 14 12 41 13 176 5 88
-5 255 -14 370 -20 116 -6 381 -21 590 -35 209 -13 488 -31 620 -40 355 -23
478 -33 498 -40 9 -4 17 -16 17 -26 0 -33 41 -47 185 -64 154 -17 218 -29 435
-81 197 -47 204 -49 375 -83 213 -43 253 -57 296 -100 56 -56 80 -195 34 -197
-11 -1 -42 -4 -69 -8 -27 -4 -99 -10 -160 -12 -177 -8 -206 -10 -301 -23 -49
-7 -148 -14 -218 -16 -86 -3 -134 -8 -144 -17 -10 -8 -45 -13 -87 -14 -39 0
-82 -5 -95 -9 -20 -7 -23 -5 -18 8 5 14 -1 17 -38 17 -25 0 -45 -4 -45 -10 0
-5 8 -10 18 -10 25 0 34 -10 22 -25 -7 -8 180 -14 738 -23 889 -15 1001 -15
1073 -2 82 15 340 30 674 40 165 5 361 13 435 19 215 16 320 20 709 26 201 3
420 10 486 15 66 6 215 15 330 20 233 11 260 15 292 40 l22 17 -42 17 c-24 9
-65 16 -93 16 -27 0 -54 4 -60 10 -5 5 -27 12 -49 14 -184 21 -268 28 -287 23
-22 -6 -22 -5 3 16 26 22 27 25 34 182 7 151 9 163 36 215 57 105 85 125 226
155 43 10 117 28 165 41 108 30 174 31 233 3 49 -23 141 -115 201 -203 30 -43
47 -58 76 -66 43 -12 45 -11 193 75 50 29 126 67 171 85 101 41 129 77 139
185 8 86 19 123 56 201 35 71 44 77 289 187 174 78 237 113 218 120 -9 4 -7 6
5 6 9 1 33 11 52 24 25 16 33 27 29 41 -4 12 -2 16 5 12 12 -8 41 16 41 34 0
6 4 9 10 5 13 -8 40 48 40 85 0 17 7 44 15 60 8 15 18 53 21 84 4 31 11 56 15
56 14 0 10 39 -11 115 -11 39 -29 108 -40 155 -33 145 -61 207 -147 320 -119
157 -314 298 -474 344 -197 56 -239 67 -284 75 -27 6 -86 17 -130 25 -44 9
-82 16 -85 16 -10 0 76 -37 102 -43 42 -11 173 -103 234 -165 76 -78 108 -147
108 -237 0 -79 -19 -131 -86 -227 -59 -84 -142 -134 -280 -169 -46 -12 -103
-24 -128 -26 -25 -3 -49 -9 -55 -13 -17 -12 -70 -15 -310 -12 -407 5 -480 7
-494 17 -8 5 -94 12 -190 16 -97 4 -214 13 -261 19 -47 7 -110 13 -140 15
-181 11 -348 20 -365 18 -11 -1 -67 3 -125 8 -169 16 -446 22 -831 19 l-46 0
1 -42 c1 -41 0 -43 -32 -46 -36 -4 -43 6 -46 60 -1 40 -8 46 -46 40 -30 -4
-38 -16 -20 -27 6 -3 10 -22 10 -41 0 -31 -3 -34 -28 -34 -44 0 -83 56 -52 75
23 14 7 24 -35 23 -25 -1 -45 -6 -45 -10 0 -4 5 -8 10 -8 6 0 10 -18 10 -39 0
-38 -1 -40 -31 -39 -35 1 -53 32 -43 74 6 22 3 24 -29 24 -34 0 -56 -13 -40
-23 5 -3 8 -20 7 -39 -1 -30 -4 -33 -30 -33 -27 0 -29 3 -32 39 -2 24 2 42 10
47 8 6 -7 9 -39 11 -29 1 -67 2 -83 3 -17 1 -32 -1 -35 -4 -2 -4 -41 -3 -87 1
-94 9 -231 17 -363 21 -49 2 -101 9 -114 16 l-23 13 23 14 c13 7 31 16 39 20
8 4 19 13 23 21 4 7 17 13 28 13 12 0 23 8 25 18 3 9 21 27 40 40 45 29 45 46
-1 39 -19 -3 -37 -1 -41 4 -3 6 -18 8 -33 4 -31 -9 -22 -9 -136 -1 -49 3 -142
9 -205 12 -130 7 -186 10 -315 19 -49 3 -173 10 -275 15 -265 15 -324 19 -420
30 -87 10 -358 25 -374 21 -5 -1 -59 3 -120 8 -61 6 -156 13 -211 16 -55 2
-167 9 -250 14 -82 6 -217 13 -300 16 -82 3 -206 7 -275 10 -69 3 -230 7 -359
10 -129 3 -236 7 -239 10 -9 9 -47 6 -58 -5 -6 -6 -43 -6 -99 -1 -55 5 -97 4
-109 -2 -11 -5 -142 -7 -336 -4 -301 5 -385 13 -414 39 -14 11 55 12 459 1
247 -7 231 -7 640 -5 176 1 368 -1 428 -3 61 -2 107 1 107 6 0 5 -6 9 -12 9
-7 0 -1 11 12 24 23 22 36 25 135 29 241 12 516 28 620 37 61 6 158 10 218 10
63 0 107 4 107 10 0 5 -12 8 -27 5 -16 -2 -129 -7 -253 -10 -124 -4 -243 -8
-265 -10 -22 -2 -134 -9 -250 -15 -184 -9 -291 -18 -400 -35 -16 -2 -172 -7
-345 -10 -173 -3 -385 -8 -470 -11 -102 -4 -152 -2 -145 4 6 5 109 15 230 21
121 6 306 15 410 21 105 5 343 16 530 25 187 8 378 17 425 20 47 3 194 8 328
11 134 3 249 7 255 9 7 2 104 7 217 10 113 3 284 8 380 11 120 4 172 2 165 -5
-5 -5 -32 -12 -60 -14 -45 -3 -43 -4 17 -5 59 -2 67 0 61 15 -6 15 4 16 108
11 63 -3 101 -2 84 2 -17 5 85 8 240 9 149 1 347 4 440 7 94 2 244 5 334 5
116 0 176 4 205 14 53 19 75 19 82 0 11 -27 -23 -62 -90 -95 -36 -17 -68 -36
-71 -41 -4 -5 -18 -9 -32 -9 -15 0 -24 -3 -20 -6 3 -4 248 -7 544 -9 296 -1
560 -5 586 -10 37 -5 52 -4 65 8 10 9 39 21 65 27 61 13 242 7 261 -10 12 -9
62 -10 208 -6 275 9 419 16 453 21 17 3 64 7 105 10 41 3 89 10 105 15 17 5
37 8 45 7 29 -3 150 16 156 24 3 5 15 9 27 9 62 0 202 50 256 92 28 21 21 23
-22 4 -67 -28 -90 -37 -93 -33 -2 1 18 14 44 27 26 14 49 28 50 33 2 4 12 7
23 7 10 0 19 5 19 12 0 6 11 26 25 44 25 33 29 52 19 91 -6 20 -56 48 -68 36
-3 -3 -27 0 -53 6 -26 6 -73 13 -103 15 -30 2 -76 9 -102 15 -26 6 -55 8 -64
4 -12 -4 -15 -3 -10 5 7 12 -23 16 -111 12 -25 -1 -43 3 -43 9 0 7 -8 7 -26
-1 -20 -9 -30 -9 -46 1 -11 7 -57 16 -102 21 -44 5 -119 16 -166 24 -47 9
-102 16 -122 16 -20 0 -59 5 -87 12 -48 11 -51 13 -51 44 0 27 -3 31 -19 27
-10 -3 -22 0 -25 6 -4 6 -18 11 -31 11 -13 0 -25 4 -27 10 -3 10 -65 25 -145
37 l-43 6 0 -44 c0 -39 -5 -69 -26 -158 -4 -19 -7 -22 -14 -11 -6 10 -12 11
-22 3 -14 -12 -50 -3 -48 12 1 5 -3 11 -9 13 -6 2 -11 -1 -11 -7 0 -7 -13 -9
-35 -5 -30 4 -35 2 -39 -18 -11 -54 -13 -78 -5 -78 10 0 6 -117 -4 -127 -11
-10 -50 -15 -56 -6 -8 10 -68 34 -103 40 -29 6 -34 20 -43 143 -6 80 -14 129
-24 155 -5 11 -16 47 -26 80 -9 33 -26 80 -38 105 -23 50 -111 185 -127 195
-18 11 0 25 31 25 35 0 37 13 7 34 -33 23 -54 20 -127 -21 -82 -45 -124 -81
-191 -161 -42 -50 -55 -60 -66 -51 -11 9 -18 8 -29 -1 -10 -9 -15 -9 -15 -1 0
6 -13 11 -28 11 -15 0 -33 5 -40 12 -9 9 -17 7 -35 -10 -13 -12 -26 -22 -29
-22 -11 0 11 64 32 92 11 15 17 33 14 41 -9 24 -109 63 -119 47 -3 -5 2 -32
11 -59 9 -28 14 -58 10 -66 -3 -8 -1 -15 4 -15 6 0 10 -15 10 -33 0 -18 7 -42
15 -53 16 -23 38 -142 29 -156 -3 -5 -18 -14 -32 -19 -22 -9 -30 -7 -43 10
-11 13 -24 19 -33 15 -12 -5 -15 -2 -10 10 3 9 1 16 -5 16 -6 0 -11 -9 -11
-20 0 -18 -3 -19 -21 -10 -11 7 -18 18 -15 25 6 16 -24 129 -36 133 -4 2 -8
16 -8 30 -1 31 -23 126 -38 162 -6 14 -20 57 -31 95 -37 123 -212 388 -239
360 -4 -4 3 -14 16 -22 30 -21 28 -29 -8 -36 -16 -4 -30 -11 -30 -16 0 -6 8
-8 18 -5 13 4 12 1 -5 -14 -13 -11 -23 -23 -23 -27 0 -3 -17 -26 -37 -51 -27
-31 -42 -42 -55 -38 -10 3 -18 0 -18 -6 0 -6 -5 -16 -10 -23 -6 -7 -18 -21
-28 -33 -20 -24 -45 -35 -89 -40 -25 -2 -31 0 -26 12 6 17 -20 15 -55 -5 -13
-7 -26 -10 -29 -8 -4 5 15 57 38 99 15 29 11 34 -33 48 -24 8 -47 17 -53 20
-5 4 -17 8 -25 9 -8 0 -32 4 -52 7 -52 8 -56 -8 -24 -104 25 -74 30 -81 71
-102 41 -21 67 -50 45 -50 -6 0 -9 -6 -7 -12 1 -8 -7 -12 -21 -10 -18 1 -23
-2 -20 -15 2 -10 -6 -26 -17 -35 -11 -10 -15 -17 -7 -18 19 0 14 -18 -9 -30
-16 -9 -24 -8 -39 5 -10 9 -24 14 -29 10 -6 -3 -17 -3 -23 2 -7 4 -25 6 -40 4
-22 -2 -26 1 -21 18 3 12 1 21 -6 21 -6 0 -11 8 -11 18 0 10 -3 22 -7 25 -3 4
-8 22 -10 39 -5 49 -33 164 -59 243 -18 55 -27 70 -43 70 -10 0 -23 3 -27 8
-4 4 3 7 15 7 20 0 22 4 17 26 -4 14 -15 38 -25 53 -10 14 -40 65 -65 113 -26
48 -51 90 -57 94 -6 3 -38 -8 -72 -24 -45 -23 -90 -59 -165 -136 -57 -58 -109
-103 -116 -100 -7 2 -20 18 -30 34 -17 30 -34 37 -51 21 -6 -5 -20 -12 -32
-16 -32 -9 -30 15 3 65 15 22 25 42 23 44 -21 19 -146 66 -176 66 -17 0 -17
-93 0 -140 18 -51 26 -60 53 -60 13 0 24 -3 23 -7 -1 -5 2 -19 6 -31 5 -16 10
-20 15 -12 5 8 10 8 14 2 3 -5 -16 -31 -42 -58 -25 -27 -47 -55 -47 -64 0 -11
-8 -14 -30 -12 -16 2 -42 4 -57 5 -15 1 -32 7 -39 14 -6 6 -17 9 -23 7 -25 -9
-39 43 -48 175 -5 75 -11 137 -13 139 -2 2 -11 -1 -22 -6 -10 -6 -36 -17 -58
-25 -22 -9 -80 -31 -130 -50 -49 -19 -117 -43 -150 -52 -33 -9 -75 -25 -93
-36 -18 -10 -42 -19 -52 -19 -10 0 -22 -4 -25 -10 -3 -5 -17 -10 -29 -10 -27
0 -134 -43 -256 -102 -47 -22 -98 -47 -115 -54 -36 -15 -107 -24 -135 -17 -32
9 -23 30 15 36 40 7 128 39 255 95 206 89 509 212 527 212 4 0 55 18 113 40
57 22 114 40 127 40 19 0 21 4 18 31 -4 37 -21 59 -44 59 -10 0 -26 7 -37 15
-10 8 -29 15 -41 15 -12 0 -39 11 -59 25 -21 14 -54 28 -76 31 -23 4 -38 12
-38 21 0 30 46 92 88 118 37 24 47 26 65 16 23 -13 57 -71 57 -96 0 -8 5 -15
10 -15 15 0 12 13 -15 64 -14 26 -25 53 -25 60 0 20 -42 54 -47 39 -3 -7 -11
-13 -18 -13 -7 0 -16 6 -18 13 -4 10 -6 10 -6 0 -1 -7 -8 -13 -17 -13 -9 0
-12 -5 -8 -12 5 -8 2 -9 -10 -5 -17 7 -46 -12 -46 -30 0 -10 -110 -93 -150
-113 -14 -7 -37 -25 -52 -41 -28 -30 -48 -37 -48 -18 0 8 -4 8 -14 0 -10 -9
-19 -6 -36 12 -22 23 -25 23 -51 8 -29 -17 -50 -9 -34 13 6 7 25 33 43 57 l33
43 -23 18 c-28 21 -138 59 -150 52 -4 -3 -8 2 -8 11 0 10 -7 15 -17 13 -16 -3
-18 -16 -18 -105 0 -56 3 -104 6 -107 3 -3 19 -7 36 -8 20 -2 39 -14 57 -35
l27 -32 -23 -6 c-13 -3 -41 -7 -63 -8 -39 -2 -40 -4 -51 -47 -8 -33 -15 -44
-27 -42 -10 2 -17 -4 -17 -13 0 -16 -21 -21 -34 -7 -4 4 -12 8 -17 8 -5 1 -13
2 -19 3 -5 0 -10 8 -10 16 0 8 -4 15 -10 15 -5 0 -10 -6 -10 -12 0 -10 -3 -9
-9 1 -5 7 -13 11 -19 7 -16 -10 -20 3 -27 96 -4 66 -3 87 7 91 10 3 14 29 16
86 2 80 -4 95 -28 67 -6 -8 -18 -12 -26 -9 -8 3 -17 -4 -22 -18 -8 -21 -9 -21
-15 9 -5 27 -10 31 -29 28 -13 -3 -24 -5 -25 -6 -13 -9 -48 -2 -48 10 0 9 -9
14 -23 13 -34 -4 -26 12 13 27 24 9 31 16 23 22 -9 5 -6 8 9 8 28 0 79 43 69
58 -11 18 -36 15 -36 -4 0 -13 -7 -15 -40 -9 -22 4 -40 3 -40 -2 0 -4 -20 -8
-44 -8 -24 0 -42 3 -39 8 2 4 15 7 29 7 31 0 69 34 61 54 -8 20 -46 21 -53 1
-7 -16 -59 -21 -68 -6 -3 5 5 16 19 25 22 14 34 15 97 4 43 -7 79 -19 90 -30
20 -20 53 -24 63 -8 3 6 0 10 -7 10 -8 0 -24 8 -38 17 -13 9 -32 18 -42 18
-26 2 -48 25 -25 25 9 0 17 4 17 9 0 13 -28 22 -35 11 -4 -6 -13 -10 -21 -10
-10 0 -12 5 -7 13 4 6 8 18 10 26 2 15 52 60 66 61 5 0 23 11 40 24 18 13 43
26 57 28 46 6 33 68 -14 68 -13 0 -38 -14 -56 -30 -19 -17 -46 -34 -60 -37
-14 -3 -35 -17 -47 -30 -12 -12 -27 -23 -33 -23 -7 0 -24 -9 -38 -21 -15 -11
-54 -40 -87 -64 -79 -58 -158 -122 -203 -165 -21 -19 -40 -33 -44 -32 -5 1 -8
-7 -8 -19 0 -15 -5 -19 -15 -15 -8 3 -15 0 -15 -7 0 -17 -39 -49 -50 -42 -5 3
-14 -4 -20 -15 -6 -11 -22 -23 -35 -26 -14 -3 -25 -12 -25 -19 0 -15 -18 -30
-26 -22 -2 2 0 16 6 31 9 25 8 27 -10 21 -14 -5 -20 -2 -20 9 0 11 -10 16 -31
16 -25 0 -30 -3 -25 -16 5 -12 2 -15 -10 -10 -8 3 -22 -1 -31 -10 -22 -22 -26
-12 -8 22 8 16 15 33 15 37 0 18 91 126 112 133 43 13 124 69 174 118 27 28
63 60 78 70 27 18 27 19 10 29 -11 6 -25 17 -33 25 -8 7 -23 11 -33 9 -15 -4
-18 -2 -14 10 4 9 1 22 -5 29 -9 11 -6 14 14 14 14 0 28 6 30 13 4 8 6 7 6 -3
1 -8 5 -21 10 -29 8 -12 13 -12 34 2 24 16 67 13 67 -4 0 -5 5 -9 10 -9 6 0 3
11 -7 24 -15 21 -25 24 -58 21 -22 -2 -32 -1 -22 2 23 6 22 29 -3 36 -11 3
-20 12 -20 21 0 14 4 15 20 6 11 -6 20 -15 20 -20 0 -6 6 -10 14 -10 29 0 27
21 -6 52 l-33 31 24 8 c14 6 21 14 17 24 -4 11 1 13 22 9 40 -7 57 8 41 34
-11 18 -11 24 4 39 13 15 15 26 7 54 -9 33 -68 99 -88 99 -5 0 -15 7 -22 15
-10 12 -10 15 3 15 9 0 19 5 23 12 5 8 -6 10 -43 5 -39 -4 -53 -2 -66 11 -25
27 -42 39 -65 46 -12 4 -22 12 -22 17 0 6 -5 7 -11 4 -6 -4 3 -19 22 -36 39
-34 31 -50 -12 -25 -29 17 -31 17 -65 -3 -19 -12 -42 -21 -50 -21 -12 0 -12
-4 2 -25 9 -14 23 -25 30 -25 8 0 14 -4 14 -10 0 -17 -24 -11 -50 13 -14 13
-30 22 -36 20 -6 -2 -14 5 -17 17 -3 12 -13 20 -26 20 -12 0 -21 5 -21 10 0 6
-4 10 -10 10 -5 0 -10 -7 -10 -15 0 -8 6 -15 13 -15 19 0 53 -27 45 -36 -4 -4
-14 -1 -22 5 -17 15 -36 7 -36 -15 0 -8 -2 -14 -5 -14 -12 0 -51 26 -63 43 -7
9 -19 17 -25 17 -7 0 -23 9 -37 20 -26 20 -50 26 -50 12 0 -4 15 -15 33 -25
17 -10 40 -29 49 -42 15 -20 15 -24 3 -29 -9 -3 -15 0 -15 8 0 8 -14 16 -31
18 -23 4 -34 -1 -47 -17 -10 -12 -29 -25 -42 -29 -23 -6 -23 -6 -7 7 9 8 17
19 17 26 0 17 -38 51 -57 51 -15 -1 -15 -3 5 -19 24 -21 29 -41 10 -41 -6 0
-20 7 -30 17 -10 9 -21 13 -26 9 -4 -4 5 -18 21 -30 15 -12 27 -27 27 -33 0
-6 5 -13 12 -15 9 -3 9 -6 0 -12 -7 -4 -12 -2 -12 3 0 6 -7 11 -16 11 -9 0
-34 18 -56 40 -22 22 -49 40 -59 40 -27 0 -23 -12 11 -35 16 -11 30 -23 30
-26 0 -4 -19 -11 -42 -18 -35 -9 -45 -8 -54 4 -12 16 -44 21 -44 6 0 -5 -9
-11 -19 -14 -14 -3 -18 -1 -14 9 3 8 -4 18 -18 23 l-24 10 27 0 c14 1 28 -5
31 -11 3 -9 8 -10 15 -3 13 12 5 25 -25 42 -28 16 -73 -2 -73 -29 0 -11 -7
-18 -19 -18 -17 0 -18 3 -8 25 7 14 17 25 22 25 12 0 48 40 42 46 -2 2 -17 -2
-33 -11 -36 -19 -44 -19 -44 0 0 8 9 15 20 15 11 0 20 7 20 15 0 8 -9 15 -20
15 -11 0 -20 7 -20 15 0 8 -6 12 -14 9 -17 -6 -31 12 -16 21 20 12 -1 25 -22
14 -19 -10 -20 -9 -14 15 5 22 3 26 -16 26 -16 0 -33 15 -57 49 -18 28 -40 52
-47 55 -8 3 -14 12 -14 21 0 8 -7 15 -15 15 -8 0 -15 7 -15 16 0 11 -6 15 -20
11 -11 -3 -20 0 -20 6 -1 16 -31 52 -52 59 -11 5 -15 14 -11 28 5 17 2 21 -12
19 -28 -6 -28 -24 -1 -50 14 -13 26 -31 26 -40 0 -9 9 -19 19 -22 12 -3 19
-12 17 -23 -4 -24 -36 -32 -36 -9 0 8 -7 18 -15 21 -8 3 -17 14 -20 24 -4 11
-12 17 -21 13 -10 -4 -14 2 -14 21 0 23 -2 25 -19 16 -29 -15 -50 -12 -28 4
21 16 22 36 1 36 -24 0 -54 -19 -54 -35 0 -8 -4 -15 -10 -15 -5 0 -10 6 -10
14 0 7 -15 24 -34 37 -19 13 -37 32 -40 43 -3 12 -10 17 -21 12 -12 -4 -19 0
-22 14 -3 11 -9 20 -14 20 -5 0 -9 8 -9 19 0 10 -9 21 -20 24 -30 8 -24 32 14
52 10 6 18 15 18 20 -1 18 -21 16 -41 -4 -24 -24 -41 -27 -41 -7 0 8 -9 17
-20 21 -11 3 -19 11 -17 18 1 6 -8 13 -20 15 -13 2 -23 10 -23 18 0 8 -7 14
-15 14 -24 0 -17 -23 15 -50 17 -13 30 -32 30 -42 0 -10 7 -21 15 -24 20 -8
19 -34 -1 -34 -9 0 -18 9 -21 20 -3 11 -9 20 -13 20 -4 0 -10 9 -13 20 -3 12
-14 20 -27 20 -18 0 -20 3 -11 13 8 10 4 19 -19 35 -35 26 -46 27 -58 6 -8
-14 -15 -11 -48 20 -40 36 -54 44 -54 27z m130 -101 c0 -5 -9 -10 -21 -10 -11
0 -17 5 -14 10 3 6 13 10 21 10 8 0 14 -4 14 -10z m45 -80 c3 -5 1 -10 -4 -10
-6 0 -11 5 -11 10 0 6 2 10 4 10 3 0 8 -4 11 -10z m145 -4 c0 -3 -4 -8 -10
-11 -5 -3 -10 -1 -10 4 0 6 5 11 10 11 6 0 10 -2 10 -4z m-610 -30 c0 -3 -4
-8 -10 -11 -5 -3 -10 -1 -10 4 0 6 5 11 10 11 6 0 10 -2 10 -4z m705 -76 c14
0 13 -3 -1 -25 -20 -30 -44 -34 -37 -5 3 11 0 20 -6 20 -6 0 -11 7 -11 15 0 9
-11 20 -25 25 -25 9 -31 21 -19 33 4 4 24 -9 46 -28 21 -19 45 -35 53 -35z
m-172 27 c-3 -5 -10 -4 -15 1 -6 6 -7 16 -3 22 6 9 9 9 16 -1 4 -7 5 -17 2
-22z m207 -66 c0 -24 -14 -41 -34 -41 -16 0 -18 2 -7 9 7 5 11 13 7 19 -3 6 0
13 6 15 20 8 28 8 28 -2z m27 -47 c-3 -3 -12 -4 -19 -1 -8 3 -5 6 6 6 11 1 17
-2 13 -5z m120 -44 c1 -11 -4 -20 -12 -20 -8 0 -13 9 -12 20 1 11 6 20 12 20
6 0 11 -9 12 -20z m-97 0 c0 -5 -5 -10 -11 -10 -5 0 -7 5 -4 10 3 6 8 10 11
10 2 0 4 -4 4 -10z m266 -50 c0 -11 -6 -20 -13 -20 -15 0 -15 2 -7 24 9 22 20
20 20 -4z m29 -40 c-5 -15 -2 -20 12 -20 25 -1 53 -24 53 -44 0 -9 8 -16 20
-16 21 0 27 -15 10 -25 -15 -9 -12 -25 5 -25 8 0 15 5 15 10 0 6 8 10 18 9 10
0 12 -3 5 -6 -21 -8 -15 -33 7 -33 15 0 19 -6 16 -22 -1 -13 -11 -25 -20 -26
-14 -3 -17 1 -11 19 6 18 4 21 -10 15 -19 -7 -59 27 -60 49 0 17 -31 45 -50
45 -9 0 -13 5 -10 10 3 6 0 13 -9 16 -20 8 -28 34 -15 50 17 21 31 17 24 -6z
m-75 -70 c0 -5 -2 -10 -4 -10 -3 0 -8 5 -11 10 -3 6 -1 10 4 10 6 0 11 -4 11
-10z m30 -45 c0 -8 -7 -15 -15 -15 -26 0 -18 20 13 29 1 1 2 -6 2 -14z m90
-45 c0 -5 -8 -10 -17 -10 -15 0 -16 -2 -3 -10 8 -5 12 -11 9 -14 -3 -3 -14 1
-25 9 -16 13 -17 16 -4 25 19 13 40 13 40 0z m170 -26 c0 -9 -7 -14 -17 -12
-25 5 -28 28 -4 28 12 0 21 -6 21 -16z m888 -13 c23 -20 29 -41 12 -41 -5 0
-10 5 -10 10 0 6 -9 10 -20 10 -13 0 -20 7 -20 20 0 25 8 25 38 1z m-1108 -1
c0 -5 -5 -10 -11 -10 -5 0 -7 5 -4 10 3 6 8 10 11 10 2 0 4 -4 4 -10z m1180
-20 c0 -5 -4 -10 -10 -10 -5 0 -10 5 -10 10 0 6 5 10 10 10 6 0 10 -4 10 -10z
m75 0 c3 -5 1 -10 -4 -10 -6 0 -11 5 -11 10 0 6 2 10 4 10 3 0 8 -4 11 -10z
m-1200 -10 c-3 -5 -13 -10 -21 -10 -8 0 -14 5 -14 10 0 6 9 10 21 10 11 0 17
-4 14 -10z m132 4 c-3 -3 -12 -4 -19 -1 -8 3 -5 6 6 6 11 1 17 -2 13 -5z m873
-10 c0 -17 -22 -14 -28 4 -2 7 3 12 12 12 9 0 16 -7 16 -16z m-830 -24 c0 -5
-4 -10 -9 -10 -6 0 -13 5 -16 10 -3 6 1 10 9 10 9 0 16 -4 16 -10z m-150 -10
c0 -5 -4 -10 -10 -10 -5 0 -10 5 -10 10 0 6 5 10 10 10 6 0 10 -4 10 -10z
m648 -21 c-17 -10 -28 -2 -21 17 4 11 8 12 20 3 11 -10 11 -14 1 -20z m227 11
c3 -5 1 -10 -4 -10 -6 0 -11 5 -11 10 0 6 2 10 4 10 3 0 8 -4 11 -10z m-657
-46 c-15 -16 -18 -16 -33 0 -15 15 -14 16 16 16 31 0 32 -1 17 -16z m242 -14
c0 -5 -4 -10 -9 -10 -6 0 -13 5 -16 10 -3 6 1 10 9 10 9 0 16 -4 16 -10z
m-209 -23 c-13 -13 -26 -3 -16 12 3 6 11 8 17 5 6 -4 6 -10 -1 -17z m75 16
c-10 -10 -46 -11 -40 -1 3 4 15 8 26 8 12 0 18 -3 14 -7z m64 -1 c0 -13 -12
-22 -22 -16 -10 6 -1 24 13 24 5 0 9 -4 9 -8z m110 -22 c0 -5 -2 -10 -4 -10
-3 0 -8 5 -11 10 -3 6 -1 10 4 10 6 0 11 -4 11 -10z m263 -347 c-7 -2 -19 -2
-25 0 -7 3 -2 5 12 5 14 0 19 -2 13 -5z m154 -9 c-3 -3 -12 -4 -19 -1 -8 3 -5
6 6 6 11 1 17 -2 13 -5z m136 -31 c-7 -2 -21 -2 -30 0 -10 3 -4 5 12 5 17 0
24 -2 18 -5z m-423 -23 c0 -9 -61 -22 -69 -14 -3 3 2 12 12 19 18 13 57 10 57
-5z m-125 -49 c-24 -22 -65 -37 -65 -22 0 18 31 41 58 41 26 0 26 0 7 -19z
m-3847 -40 c3 -8 -1 -12 -9 -9 -7 2 -15 10 -17 17 -3 8 1 12 9 9 7 -2 15 -10
17 -17z m3707 -21 c-10 -11 -22 -17 -26 -14 -16 10 -9 23 14 27 12 2 24 5 26
6 2 0 -4 -8 -14 -19z m1080 -70 c-3 -5 -17 -10 -31 -10 -14 0 -22 4 -19 10 3
6 17 10 31 10 14 0 22 -4 19 -10z m-65 -35 c-10 -12 -10 -15 4 -15 20 0 20 -9
1 -34 -13 -17 -15 -18 -15 -3 0 9 -4 17 -10 17 -5 0 -7 -7 -4 -15 4 -9 0 -15
-10 -15 -23 0 -20 29 7 55 25 26 46 33 27 10z m174 -19 c-10 -8 -21 -12 -24
-10 -5 6 21 24 34 24 6 0 1 -6 -10 -14z m-4751 -10 c3 -8 3 -17 0 -20 -9 -9
-44 14 -38 25 9 14 32 11 38 -5z m4677 -17 c0 -5 -11 -9 -25 -9 -24 0 -32 10
-19 22 8 8 44 -3 44 -13z m-4612 -11 c7 -7 12 -16 12 -20 0 -15 -15 -8 -28 12
-13 22 -3 27 16 8z m-13 -56 c-6 -6 -35 18 -35 29 0 5 9 1 20 -8 11 -9 17 -19
15 -21z m90 29 c3 -6 -3 -15 -12 -21 -13 -8 -14 -13 -5 -16 20 -9 14 -24 -10
-24 -17 0 -19 -3 -10 -12 20 -20 14 -27 -13 -15 -28 13 -34 37 -9 37 10 0 14
6 10 15 -3 9 0 15 9 15 8 0 15 7 15 15 0 17 16 20 25 6z m4552 3 c-3 -3 -12
-4 -19 -1 -8 3 -5 6 6 6 11 1 17 -2 13 -5z m-4697 -54 c0 -5 -2 -10 -4 -10 -3
0 -8 5 -11 10 -3 6 -1 10 4 10 6 0 11 -4 11 -10z m40 -16 c0 -9 -5 -14 -12
-12 -18 6 -21 28 -4 28 9 0 16 -7 16 -16z m140 -24 c0 -5 -4 -10 -10 -10 -5 0
-10 5 -10 10 0 6 5 10 10 10 6 0 10 -4 10 -10z m4764 -25 c3 -8 1 -15 -4 -15
-6 0 -10 7 -10 15 0 8 2 15 4 15 2 0 6 -7 10 -15z m-5124 -20 c14 -16 10 -18
-14 -9 -9 3 -16 10 -16 15 0 14 16 11 30 -6z m335 5 c3 -5 1 -10 -4 -10 -6 0
-11 5 -11 10 0 6 2 10 4 10 3 0 8 -4 11 -10z m39 -31 c-8 -13 -24 -1 -24 18 0
13 3 13 15 3 8 -7 12 -16 9 -21z m4409 15 c11 -11 -25 -54 -57 -68 -17 -8 -69
-29 -116 -47 -47 -18 -86 -37 -88 -41 -2 -4 -12 -8 -22 -8 -10 0 -31 -7 -46
-15 -16 -8 -38 -15 -49 -15 -11 0 -34 -9 -51 -19 -17 -10 -45 -22 -62 -26 -18
-3 -34 -10 -37 -14 -2 -5 -38 -25 -79 -45 -70 -34 -81 -36 -170 -36 -53 0 -96
3 -96 8 0 4 -17 14 -38 23 -101 44 -116 52 -104 56 7 3 35 -2 62 -11 29 -10
83 -16 134 -16 85 0 126 11 321 90 99 40 207 87 240 104 22 12 67 32 100 45
33 13 64 28 70 32 10 10 79 12 88 3z m-1618 -14 c3 -5 -3 -10 -15 -10 -12 0
-18 5 -15 10 3 6 10 10 15 10 5 0 12 -4 15 -10z m2655 -4 c-26 -13 -44 -11
-35 5 4 5 18 9 33 9 l27 0 -25 -14z m-5764 -10 c10 -8 16 -17 13 -20 -3 -4
-17 2 -30 13 -27 23 -13 28 17 7z m3038 -36 c-15 -15 -74 -24 -74 -12 0 6 17
13 38 15 20 2 39 4 42 5 2 1 0 -2 -6 -8z m-2964 -38 c-7 -3 -19 3 -28 13 -16
15 -15 16 12 4 15 -7 23 -15 16 -17z m4030 -3 c0 -4 -7 -6 -15 -3 -8 4 -15 10
-15 15 0 4 7 6 15 3 8 -4 15 -10 15 -15z m1597 15 c-3 -3 -12 -4 -19 -1 -8 3
-5 6 6 6 11 1 17 -2 13 -5z m-42 -33 c-3 -6 -16 -11 -28 -11 -21 1 -21 1 3 15
27 14 36 13 25 -4z m-85 -31 c-20 -13 -33 -13 -25 0 3 6 14 10 23 10 15 0 15
-2 2 -10z m1345 -98 c21 -15 66 -93 72 -125 3 -17 10 -40 15 -49 7 -15 3 -16
-44 -11 -29 3 -56 11 -60 16 -3 6 -15 12 -25 13 -21 3 -82 25 -101 37 -17 11
11 60 58 98 34 28 65 36 85 21z m-6655 -12 c0 -5 -2 -10 -4 -10 -3 0 -8 5 -11
10 -3 6 -1 10 4 10 6 0 11 -4 11 -10z m235 -10 c3 -6 -1 -7 -9 -4 -18 7 -21
14 -7 14 6 0 13 -4 16 -10z m-153 -52 c-9 -9 -15 -9 -24 0 -9 9 -7 12 12 12
19 0 21 -3 12 -12z m6392 -35 c-5 -5 -12 -12 -16 -18 -4 -6 -8 -2 -8 8 0 9 7
17 17 17 9 0 12 -3 7 -7z m-1667 -35 c-3 -8 -6 -5 -6 6 -1 11 2 17 5 13 3 -3
4 -12 1 -19z m1626 -18 c-3 -11 -7 -20 -9 -20 -2 0 -4 9 -4 20 0 11 4 20 9 20
5 0 7 -9 4 -20z m-6143 -6 c0 -2 -9 -4 -21 -4 -11 0 -18 4 -14 10 5 8 35 3 35
-6z m6112 -36 c5 -15 -53 -48 -83 -48 -17 0 -19 3 -10 14 7 8 23 17 36 20 14
4 25 11 25 16 0 14 28 12 32 -2z m-6012 -8 c0 -5 -9 -10 -20 -10 -11 0 -20 5
-20 10 0 6 9 10 20 10 11 0 20 -4 20 -10z m103 -47 c-7 -2 -19 -2 -25 0 -7 3
-2 5 12 5 14 0 19 -2 13 -5z m7164 -45 c30 -33 83 -139 83 -165 0 -17 -6 -23
-23 -23 -13 0 -27 4 -33 10 -5 5 -23 11 -39 12 -17 1 -34 5 -40 8 -5 4 -23 10
-40 14 -39 10 -58 26 -47 40 5 6 12 23 16 38 9 39 54 88 80 88 12 0 32 -10 43
-22z m-8174 -59 c240 -81 290 -99 283 -106 -4 -5 -118 28 -161 47 -11 5 -90
32 -175 60 -134 45 -194 70 -166 70 4 0 103 -32 219 -71z m1134 55 c-3 -3 -12
-4 -19 -1 -8 3 -5 6 6 6 11 1 17 -2 13 -5z m6881 -122 c6 -18 -15 -14 -22 4
-4 10 -1 14 6 12 6 -2 14 -10 16 -16z m-1437 -83 c-13 -10 -28 -19 -35 -19 -6
0 3 11 19 24 17 13 32 22 35 19 3 -2 -6 -13 -19 -24z m1329 -28 c0 -10 -45
-41 -60 -41 -18 0 -10 15 18 32 32 19 42 21 42 9z m1230 -117 c32 -28 56 -65
77 -124 14 -39 11 -46 -14 -35 -10 5 -22 9 -28 9 -5 1 -26 9 -45 18 -49 22
-69 30 -114 42 -22 6 -41 16 -43 22 -2 6 8 26 23 44 48 56 96 64 144 24z
m-1510 -179 c-13 -16 -40 -21 -40 -7 0 8 42 30 49 25 2 -1 -2 -9 -9 -18z
m2206 -122 c-10 -10 -19 5 -10 18 6 11 8 11 12 0 2 -7 1 -15 -2 -18z m-1213
-188 c-25 -19 -27 -13 -6 24 16 27 18 29 21 10 2 -11 -4 -26 -15 -34z m2507
-85 c0 -11 -6 -20 -14 -20 -9 0 -12 7 -9 20 3 11 9 20 14 20 5 0 9 -9 9 -20z
m-2116 -39 c8 -12 -72 -70 -143 -104 -96 -47 -109 -28 -25 35 81 62 154 92
168 69z m-1311 -31 c38 0 66 -4 63 -9 -10 -16 -202 -25 -931 -46 -104 -3 -251
-8 -325 -10 -74 -2 -238 -7 -365 -10 -126 -3 -243 -8 -260 -10 -16 -2 -131 -7
-255 -10 -124 -4 -252 -11 -285 -16 -33 -5 -105 -9 -160 -9 -55 0 -127 -5
-160 -10 -56 -9 -421 -30 -600 -35 -44 -1 -120 -8 -170 -14 -83 -10 -395 -26
-695 -35 -69 -2 -155 -11 -192 -19 -60 -15 -131 -21 -333 -31 -38 -2 -78 -7
-87 -11 -9 -4 -39 -3 -65 2 -26 5 -113 7 -193 4 -136 -6 -200 0 -200 19 0 11
55 20 129 20 36 0 127 4 201 10 74 5 304 17 510 26 206 8 410 20 455 25 44 5
118 9 165 9 47 1 146 7 220 15 150 16 443 40 590 49 52 3 174 10 270 15 465
28 637 35 1095 46 127 3 262 8 300 10 39 2 203 7 365 11 162 3 410 10 550 14
140 4 264 6 275 4 11 -2 51 -4 88 -4z m1062 -1 c-22 -5 -64 -11 -94 -14 -29
-2 -69 -9 -88 -16 -19 -6 -49 -8 -66 -4 -18 3 -75 9 -127 11 -52 3 -102 8
-110 11 -40 14 44 21 275 21 175 0 238 -3 210 -9z m-855 -10 c-72 -5 -118 -5
-124 1 -7 7 34 9 115 9 l124 -2 -115 -8z m233 4 c-7 -2 -19 -2 -25 0 -7 3 -2
5 12 5 14 0 19 -2 13 -5z m1178 -99 c15 -13 16 -20 6 -38 -17 -29 -27 -36 -63
-36 -40 0 -50 10 -21 24 13 7 23 23 25 39 4 31 26 36 53 11z m-507 -43 c6 -9
-26 -21 -56 -21 -29 0 -21 18 10 23 15 2 30 5 34 6 4 0 9 -3 12 -8z m1641 -1
c-3 -5 -39 -9 -78 -9 -58 1 -65 3 -37 9 54 11 122 11 115 0z m-552 -17 c-35
-2 -91 -2 -125 0 -35 2 -7 3 62 3 69 0 97 -1 63 -3z m130 0 c-7 -2 -19 -2 -25
0 -7 3 -2 5 12 5 14 0 19 -2 13 -5z m175 0 c-15 -2 -42 -2 -60 0 -18 2 -6 4
27 4 33 0 48 -2 33 -4z m332 -37 c0 -11 -19 -15 -25 -6 -3 5 1 10 9 10 9 0 16
-2 16 -4z m-8070 -46 c0 -5 -9 -10 -20 -10 -11 0 -20 5 -20 10 0 6 9 10 20 10
11 0 20 -4 20 -10z m1468 -27 c-32 -2 -84 -2 -115 0 -32 2 -6 3 57 3 63 0 89
-1 58 -3z m515 -80 c-7 -2 -19 -2 -25 0 -7 3 -2 5 12 5 14 0 19 -2 13 -5z
m-133 -157 c0 -3 -4 -8 -10 -11 -5 -3 -10 -1 -10 4 0 6 5 11 10 11 6 0 10 -2
10 -4z m123 -3 c-7 -2 -19 -2 -25 0 -7 3 -2 5 12 5 14 0 19 -2 13 -5z m137 -3
c0 -5 -16 -10 -35 -10 -19 0 -35 5 -35 10 0 6 16 10 35 10 19 0 35 -4 35 -10z
m369 -16 c2 -2 -34 -4 -80 -4 -52 0 -94 -5 -111 -14 -21 -11 -26 -11 -22 -1
10 24 49 32 129 27 44 -2 82 -6 84 -8z m141 -29 c-7 -9 -15 -13 -17 -11 -7 7
7 26 19 26 6 0 6 -6 -2 -15z m1175 -15 c3 -5 -1 -10 -9 -10 -9 0 -16 5 -16 10
0 6 4 10 9 10 6 0 13 -4 16 -10z m260 -10 c-3 -5 -13 -10 -21 -10 -8 0 -12 5
-9 10 3 6 13 10 21 10 8 0 12 -4 9 -10z m75 0 c0 -5 -14 -10 -31 -10 -17 0
-28 4 -24 10 3 6 17 10 31 10 13 0 24 -4 24 -10z m76 -11 c9 -15 -23 -10 -35
5 -10 12 -8 13 9 9 11 -3 23 -9 26 -14z m-1666 -32 c0 -10 -213 -6 -250 4 -14
4 37 7 113 7 75 -1 137 -6 137 -11z m1517 -13 c-3 -3 -12 -4 -19 -1 -8 3 -5 6
6 6 11 1 17 -2 13 -5z m132 0 c17 -4 31 -13 31 -21 0 -11 -4 -11 -22 -2 -12 6
-33 15 -47 20 -32 9 -5 11 38 3z m-1669 -73 c0 -12 -41 -22 -54 -13 -6 3 0 9
14 13 36 10 40 10 40 0z m-102 -8 c-16 -2 -40 -2 -55 0 -16 2 -3 4 27 4 30 0
43 -2 28 -4z m3619 -36 c7 -5 9 -14 5 -21 -4 -6 -7 -20 -7 -31 0 -13 -8 -21
-22 -23 -31 -5 -51 37 -35 73 11 25 29 25 59 2z m-2654 6 c-7 -2 -21 -2 -30 0
-10 3 -4 5 12 5 17 0 24 -2 18 -5z m780 -5 c-6 -11 -190 -10 -197 0 -2 4 42 8
99 7 56 0 101 -3 98 -7z m1213 -20 c-3 -27 -8 -34 -30 -36 -24 -3 -26 0 -26
32 0 33 2 36 30 36 28 0 30 -2 26 -32z m154 -3 c0 -25 -22 -49 -34 -38 -4 4
-15 8 -24 8 -20 0 -28 31 -13 49 6 7 23 11 41 8 23 -3 30 -9 30 -27z m130 9
c13 -32 -3 -56 -34 -52 -15 2 -22 12 -24 32 -6 48 42 64 58 20z m231 16 c15 0
19 -7 19 -35 0 -33 -1 -34 -35 -33 -28 1 -37 6 -41 25 -8 32 3 56 22 49 9 -3
24 -6 35 -6z m-129 -12 c7 -21 -4 -59 -16 -55 -22 7 -19 67 3 67 5 0 11 -5 13
-12z m1058 -13 c0 -24 -36 -59 -53 -52 -20 7 -23 63 -5 69 21 7 58 -4 58 -17z
m128 -13 c17 -23 15 -40 -8 -52 -27 -14 -56 2 -64 36 -12 45 40 56 72 16z
m130 9 c8 -5 12 -21 10 -37 -2 -23 -9 -30 -29 -32 -33 -4 -53 20 -45 53 7 26
37 34 64 16z m213 -11 c20 -11 26 -54 9 -65 -18 -11 -48 5 -54 31 -11 41 6 54
45 34z m133 -10 c33 -12 33 -33 0 -55 -30 -20 -41 -13 -50 33 -7 35 3 40 50
22z m142 -8 c7 -4 9 -21 7 -39 -7 -41 -39 -46 -53 -7 -16 40 -14 44 30 53 3 0
10 -3 16 -7z m120 -8 c17 -4 21 -12 19 -35 -3 -38 -8 -43 -40 -35 -19 5 -25
13 -25 35 0 40 7 45 46 35z m144 -14 c15 0 22 -40 10 -55 -20 -24 -49 -18 -60
11 -12 30 4 58 27 49 8 -3 18 -5 23 -5z m2727 -372 c-3 -7 -5 -2 -5 12 0 14 2
19 5 13 2 -7 2 -19 0 -25z m-59 -40 c-2 -6 -15 -13 -29 -14 -23 -4 -23 -3 -5
11 24 18 39 19 34 3z m-73 -38 c-3 -5 -10 -10 -16 -10 -5 0 -9 5 -9 10 0 6 7
10 16 10 8 0 12 -4 9 -10z m-60 -150 c-3 -5 -11 -10 -16 -10 -6 0 -7 5 -4 10
3 6 11 10 16 10 6 0 7 -4 4 -10z m-45 -20 c0 -5 -2 -10 -4 -10 -3 0 -8 5 -11
10 -3 6 -1 10 4 10 6 0 11 -4 11 -10z m-9485 -526 c66 -8 122 -17 124 -20 9
-9 -138 -4 -195 7 -65 12 -104 28 -69 29 12 0 75 -7 140 -16z m5206 -10 c5 -3
26 -8 45 -10 20 -2 48 -11 62 -18 48 -25 122 -97 138 -134 22 -55 12 -58 -86
-24 -38 13 -529 22 -536 10 -3 -4 -13 -4 -23 2 -12 6 -22 5 -30 -3 -9 -9 -14
-9 -21 3 -6 10 -12 12 -20 4 -6 -6 -30 -8 -58 -4 -26 3 -64 3 -84 -1 -20 -3
-43 -2 -50 2 -7 4 -18 3 -25 -3 -9 -7 -17 -7 -29 3 -13 10 -17 10 -24 -1 -7
-12 -11 -12 -25 0 -10 9 -19 10 -23 4 -8 -12 -81 -12 -99 -1 -6 4 -14 3 -18
-3 -4 -6 -12 -7 -18 -3 -13 8 -15 8 -272 18 -99 3 -184 10 -190 15 -5 4 -32 8
-60 8 -27 0 -83 4 -124 9 -40 5 -94 6 -120 2 -30 -4 -49 -3 -53 5 -6 7 -10 8
-15 1 -5 -6 -20 -12 -35 -13 -15 -1 -67 -6 -115 -12 -48 -5 -89 -8 -91 -5 -32
32 190 84 363 85 44 0 168 7 275 14 107 8 339 20 515 27 176 6 390 17 475 23
153 12 352 12 371 0z m-1394 0 c-3 -3 -12 -4 -19 -1 -8 3 -5 6 6 6 11 1 17 -2
13 -5z m1128 -234 c88 -23 140 -51 148 -81 3 -11 -7 -47 -24 -84 -17 -34 -32
-80 -35 -101 -9 -65 -24 -92 -56 -103 -66 -23 -372 -7 -389 21 -5 7 -13 38
-19 68 -18 90 -30 128 -43 142 -20 21 -14 41 25 79 35 35 87 55 162 65 16 2
32 6 34 9 12 12 125 3 197 -15z m1830 -57 c24 -20 49 -50 54 -66 6 -17 15 -26
22 -22 17 11 59 -16 75 -47 9 -17 14 -58 14 -112 0 -81 -1 -86 -22 -90 -96
-20 -136 -26 -186 -26 -31 0 -64 -4 -72 -10 -9 -6 -17 -5 -21 2 -4 7 -23 7
-60 0 -30 -6 -115 -14 -189 -17 -79 -4 -138 -11 -141 -17 -5 -8 -21 -7 -53 2
-42 11 -48 11 -59 -4 -12 -16 -49 -18 -407 -22 -299 -3 -414 -1 -475 9 l-80
13 1 51 c3 92 86 208 183 254 24 11 82 24 130 30 47 5 92 12 100 14 23 9 99
-34 130 -74 16 -20 45 -68 63 -106 31 -65 36 -70 68 -73 19 -2 39 -8 44 -13 6
-5 22 -9 36 -9 32 0 197 55 219 73 9 7 27 18 42 24 15 7 37 34 57 71 56 106
124 150 278 182 55 11 113 24 129 29 38 10 65 0 120 -46z m-8044 -13 c18 -1
84 -186 110 -310 20 -94 19 -200 -2 -225 -5 -7 -81 -12 -196 -13 -105 -2 -190
-7 -193 -12 -4 -6 -18 -6 -36 -1 -16 4 -55 7 -86 6 -32 -1 -58 2 -58 6 0 5
-39 9 -86 9 -47 0 -93 4 -102 9 -9 5 -39 11 -67 14 -27 2 -80 10 -117 17 l-66
13 34 24 c19 12 41 23 49 23 21 0 32 27 39 101 8 79 29 155 63 226 36 72 69
87 198 89 55 1 141 5 190 8 50 3 108 6 131 6 22 -1 51 4 65 9 13 5 47 8 74 6
28 -2 53 -4 56 -5z m5497 -109 c24 -5 51 -16 60 -26 16 -16 14 -17 -38 -11
-72 7 -176 29 -186 39 -10 10 110 8 164 -2z m3762 -301 c0 -5 -4 -10 -10 -10
-5 0 -10 5 -10 10 0 6 5 10 10 10 6 0 10 -4 10 -10z m-9120 -160 c0 -5 -4 -10
-10 -10 -5 0 -10 5 -10 10 0 6 5 10 10 10 6 0 10 -4 10 -10z"/>
<path d="M4082 9468 c6 -18 28 -21 28 -4 0 9 -7 16 -16 16 -9 0 -14 -5 -12
-12z"/>
<path d="M4240 9470 c0 -5 4 -10 9 -10 6 0 13 5 16 10 3 6 -1 10 -9 10 -9 0
-16 -4 -16 -10z"/>
<path d="M4330 9470 c0 -5 5 -10 11 -10 5 0 7 5 4 10 -3 6 -8 10 -11 10 -2 0
-4 -4 -4 -10z"/>
<path d="M4365 9440 c-3 -5 1 -10 9 -10 9 0 16 5 16 10 0 6 -4 10 -9 10 -6 0
-13 -4 -16 -10z"/>
<path d="M4270 9430 c0 -5 4 -10 9 -10 6 0 13 5 16 10 3 6 -1 10 -9 10 -9 0
-16 -4 -16 -10z"/>
<path d="M4315 9400 c-3 -5 1 -10 9 -10 9 0 16 5 16 10 0 6 -4 10 -9 10 -6 0
-13 -4 -16 -10z"/>
<path d="M4400 9400 c0 -5 4 -10 9 -10 6 0 13 5 16 10 3 6 -1 10 -9 10 -9 0
-16 -4 -16 -10z"/>
<path d="M4530 9380 c-20 -12 -5 -24 16 -12 9 5 12 12 7 15 -5 3 -15 2 -23 -3z"/>
<path d="M4448 9363 c7 -3 16 -2 19 1 4 3 -2 6 -13 5 -11 0 -14 -3 -6 -6z"/>
<path d="M4475 9339 c-9 -14 -2 -20 14 -10 8 6 9 11 3 15 -6 3 -14 1 -17 -5z"/>
<path d="M4393 9333 c-7 -2 -13 -12 -13 -20 0 -10 6 -13 16 -9 9 3 18 6 20 6
2 0 4 7 4 15 0 15 -6 17 -27 8z"/>
<path d="M3745 9320 c-3 -5 -1 -10 4 -10 6 0 11 5 11 10 0 6 -2 10 -4 10 -3 0
-8 -4 -11 -10z"/>
<path d="M4605 9310 c-3 -5 1 -10 10 -10 9 0 13 5 10 10 -3 6 -8 10 -10 10 -2
0 -7 -4 -10 -10z"/>
<path d="M4800 9290 c0 -5 7 -10 16 -10 8 0 12 5 9 10 -3 6 -10 10 -16 10 -5
0 -9 -4 -9 -10z"/>
<path d="M4415 9280 c-3 -5 1 -10 10 -10 9 0 13 5 10 10 -3 6 -8 10 -10 10 -2
0 -7 -4 -10 -10z"/>
<path d="M4715 9280 c-3 -5 1 -10 9 -10 9 0 16 5 16 10 0 6 -4 10 -9 10 -6 0
-13 -4 -16 -10z"/>
<path d="M4544 9268 c-4 -6 -2 -14 5 -16 7 -2 21 -13 31 -24 11 -12 25 -18 35
-14 19 7 11 26 -11 26 -8 0 -14 4 -14 10 0 16 -38 32 -46 18z"/>
<path d="M4637 9273 c-12 -12 -7 -22 8 -17 8 4 15 10 15 15 0 11 -14 12 -23 2z"/>
<path d="M4462 9258 c-7 -7 -12 -16 -12 -20 0 -12 28 -10 36 3 10 17 -10 31
-24 17z"/>
<path d="M4757 9254 c-8 -8 1 -24 14 -24 5 0 9 7 9 15 0 15 -12 20 -23 9z"/>
<path d="M4665 9241 c-6 -11 9 -23 19 -14 9 9 7 23 -3 23 -6 0 -12 -4 -16 -9z"/>
<path d="M4496 9224 c-13 -13 -15 -19 -6 -22 15 -5 33 13 28 28 -3 9 -9 7 -22
-6z"/>
<path d="M4795 9210 c-3 -5 -1 -10 4 -10 6 0 11 5 11 10 0 6 -2 10 -4 10 -3 0
-8 -4 -11 -10z"/>
<path d="M4531 9191 c-7 -5 -12 -14 -9 -21 2 -7 10 -4 22 9 19 21 12 28 -13
12z"/>
<path d="M4612 9189 c2 -7 10 -15 17 -17 8 -3 12 1 9 9 -2 7 -10 15 -17 17 -8
3 -12 -1 -9 -9z"/>
<path d="M4698 9193 c7 -3 16 -2 19 1 4 3 -2 6 -13 5 -11 0 -14 -3 -6 -6z"/>
<path d="M4725 9160 c-3 -5 3 -10 14 -10 12 0 21 5 21 10 0 6 -6 10 -14 10 -8
0 -18 -4 -21 -10z"/>
<path d="M4860 9152 c0 -14 65 -82 79 -82 16 0 14 6 -12 32 -40 41 -67 61 -67
50z"/>
<path d="M4772 9139 c-13 -5 -20 -13 -17 -19 7 -12 45 5 45 20 0 6 -1 10 -2 9
-2 0 -13 -4 -26 -10z"/>
<path d="M4796 9091 c-3 -5 1 -12 10 -15 24 -9 31 -7 38 9 4 11 -1 15 -19 15
-13 0 -26 -4 -29 -9z"/>
<path d="M5039 9064 c-11 -14 -10 -15 11 -12 13 1 25 9 28 16 5 17 -23 15 -39
-4z"/>
<path d="M4845 9060 c-3 -5 -1 -10 5 -10 7 0 10 -6 7 -14 -7 -18 18 -40 34
-31 8 6 8 2 0 -14 -10 -18 -9 -21 7 -21 10 0 27 7 38 15 19 14 19 15 -3 21
-14 4 -20 11 -16 22 5 12 1 14 -16 9 -16 -4 -21 -2 -17 8 2 7 -2 16 -10 19
-21 8 -22 8 -29 -4z"/>
<path d="M4963 9050 c-1 -15 3 -20 15 -18 21 4 22 32 2 36 -10 2 -16 -5 -17
-18z"/>
<path d="M2088 9033 c7 -3 16 -2 19 1 4 3 -2 6 -13 5 -11 0 -14 -3 -6 -6z"/>
<path d="M2130 9030 c0 -5 5 -10 11 -10 5 0 7 5 4 10 -3 6 -8 10 -11 10 -2 0
-4 -4 -4 -10z"/>
<path d="M5032 8988 c5 -15 28 -23 28 -10 0 5 -7 13 -16 16 -10 4 -14 1 -12
-6z"/>
<path d="M5160 8981 c0 -6 7 -11 15 -11 8 0 15 -7 15 -15 0 -8 7 -15 16 -15
15 0 15 2 2 23 -16 23 -48 36 -48 18z"/>
<path d="M4934 8955 c-17 -13 -17 -14 -2 -15 9 0 20 5 23 11 11 17 0 20 -21 4z"/>
<path d="M5070 8950 c0 -5 5 -10 10 -10 6 0 10 5 10 10 0 6 -4 10 -10 10 -5 0
-10 -4 -10 -10z"/>
<path d="M5375 8940 c3 -5 10 -10 16 -10 5 0 9 5 9 10 0 6 -7 10 -16 10 -8 0
-12 -4 -9 -10z"/>
<path d="M4966 8925 c-4 -12 -1 -16 14 -13 24 3 28 22 7 26 -8 2 -17 -4 -21
-13z"/>
<path d="M5120 8922 c0 -7 5 -12 11 -12 6 0 9 -6 6 -14 -4 -10 0 -12 14 -9 11
3 18 6 17 7 -2 1 -13 10 -25 20 -13 11 -23 14 -23 8z"/>
<path d="M5004 8896 c-10 -8 -16 -18 -12 -22 11 -10 60 14 53 26 -8 14 -18 13
-41 -4z"/>
<path d="M5180 8880 c-20 -12 -9 -21 18 -13 12 3 19 9 16 14 -7 11 -15 11 -34
-1z"/>
<path d="M5320 8880 c0 -5 5 -10 10 -10 6 0 10 5 10 10 0 6 -4 10 -10 10 -5 0
-10 -4 -10 -10z"/>
<path d="M5680 8865 c0 -12 36 -43 58 -49 12 -4 22 -12 22 -17 0 -6 5 -7 10
-4 15 9 12 25 -4 25 -8 0 -27 11 -42 25 -25 24 -44 32 -44 20z"/>
<path d="M5015 8850 c-3 -5 -1 -10 4 -10 6 0 11 5 11 10 0 6 -2 10 -4 10 -3 0
-8 -4 -11 -10z"/>
<path d="M5093 8842 c-13 -2 -23 -8 -23 -13 0 -6 10 -9 23 -7 17 2 22 -1 20
-18 -2 -17 2 -21 17 -17 24 6 26 21 5 29 -8 4 -13 10 -10 14 7 12 -6 17 -32
12z"/>
<path d="M5400 8830 c0 -5 5 -10 10 -10 6 0 10 5 10 10 0 6 -4 10 -10 10 -5 0
-10 -4 -10 -10z"/>
<path d="M5580 8830 c0 -5 5 -10 10 -10 6 0 10 5 10 10 0 6 -4 10 -10 10 -5 0
-10 -4 -10 -10z"/>
<path d="M5540 8800 c0 -5 7 -10 15 -10 8 0 15 5 15 10 0 6 -7 10 -15 10 -8 0
-15 -4 -15 -10z"/>
<path d="M5680 8799 c0 -5 5 -7 10 -4 6 3 10 8 10 11 0 2 -4 4 -10 4 -5 0 -10
-5 -10 -11z"/>
<path d="M5805 8800 c-3 -5 -1 -10 4 -10 6 0 11 5 11 10 0 6 -2 10 -4 10 -3 0
-8 -4 -11 -10z"/>
<path d="M5157 8786 c-3 -8 2 -16 14 -19 22 -6 25 6 5 22 -10 9 -15 8 -19 -3z"/>
<path d="M5600 8790 c0 -5 5 -10 10 -10 6 0 10 5 10 10 0 6 -4 10 -10 10 -5 0
-10 -4 -10 -10z"/>
<path d="M6110 8790 c0 -5 5 -10 10 -10 6 0 10 5 10 10 0 6 -4 10 -10 10 -5 0
-10 -4 -10 -10z"/>
<path d="M5410 8770 c0 -5 9 -10 20 -10 11 0 19 -5 18 -11 -2 -6 3 -14 10 -16
7 -3 12 3 12 15 0 12 -9 22 -22 26 -32 8 -38 7 -38 -4z"/>
<path d="M5616 8746 c3 -8 12 -17 21 -20 11 -5 13 -2 9 10 -3 8 -6 18 -6 20 0
2 -7 4 -15 4 -8 0 -12 -6 -9 -14z"/>
<path d="M5185 8740 c-4 -6 5 -10 20 -10 15 0 24 4 20 10 -3 6 -12 10 -20 10
-8 0 -17 -4 -20 -10z"/>
<path d="M5175 8710 c-3 -5 1 -10 9 -10 9 0 16 5 16 10 0 6 -4 10 -9 10 -6 0
-13 -4 -16 -10z"/>
<path d="M5207 8684 c-10 -11 3 -24 24 -24 23 0 25 15 3 24 -19 7 -19 7 -27 0z"/>
<path d="M6110 8424 c0 -8 5 -12 10 -9 6 3 10 10 10 16 0 5 -4 9 -10 9 -5 0
-10 -7 -10 -16z"/>
<path d="M6145 8400 c3 -5 10 -10 16 -10 5 0 9 5 9 10 0 6 -7 10 -16 10 -8 0
-12 -4 -9 -10z"/>
<path d="M1567 8286 c-4 -10 -1 -13 8 -9 8 3 12 9 9 14 -7 12 -11 11 -17 -5z"/>
<path d="M6065 8271 c-3 -5 2 -11 10 -15 8 -3 17 -1 20 3 3 5 -2 11 -10 15 -8
3 -17 1 -20 -3z"/>
<path d="M1727 8159 c7 -7 15 -10 18 -7 3 3 -2 9 -12 12 -14 6 -15 5 -6 -5z"/>
<path d="M1620 8119 c0 -5 5 -7 10 -4 6 3 10 8 10 11 0 2 -4 4 -10 4 -5 0 -10
-5 -10 -11z"/>
<path d="M6632 8050 c0 -19 2 -27 5 -17 2 9 2 25 0 35 -3 9 -5 1 -5 -18z"/>
<path d="M7370 8006 c0 -9 7 -16 16 -16 9 0 14 5 12 12 -6 18 -28 21 -28 4z"/>
<path d="M1750 7976 c0 -19 19 -31 31 -19 5 5 0 14 -11 21 -17 10 -20 10 -20
-2z"/>
<path d="M6821 7974 c0 -11 3 -14 6 -6 3 7 2 16 -1 19 -3 4 -6 -2 -5 -13z"/>
<path d="M7430 7981 c0 -14 39 -57 40 -43 0 6 -9 21 -20 32 -11 11 -20 16 -20
11z"/>
<path d="M5775 7880 c3 -5 8 -10 11 -10 2 0 4 5 4 10 0 6 -5 10 -11 10 -5 0
-7 -4 -4 -10z"/>
<path d="M7570 7698 c0 -39 12 -68 26 -68 18 0 18 9 -1 54 -18 41 -25 46 -25
14z"/>
<path d="M8290 7635 c9 -11 22 -14 39 -10 19 4 36 -2 60 -20 39 -28 54 -25 26
5 -19 21 -73 40 -114 40 -20 0 -22 -2 -11 -15z"/>
<path d="M6820 7624 c0 -8 5 -12 10 -9 6 3 10 10 10 16 0 5 -4 9 -10 9 -5 0
-10 -7 -10 -16z"/>
<path d="M6690 7610 c0 -5 5 -10 11 -10 5 0 7 5 4 10 -3 6 -8 10 -11 10 -2 0
-4 -4 -4 -10z"/>
<path d="M10764 6584 c3 -9 6 -20 6 -25 0 -6 12 -9 28 -7 19 2 28 9 30 26 3
19 -1 22 -33 22 -30 0 -36 -3 -31 -16z"/>
<path d="M10802 6500 c0 -14 2 -19 5 -12 2 6 2 18 0 25 -3 6 -5 1 -5 -13z"/>
<path d="M12492 6177 c-24 -25 -28 -37 -12 -37 6 0 10 5 10 11 0 7 8 18 17 25
10 7 15 15 12 18 -3 3 -15 -4 -27 -17z"/>
<path d="M8567 6033 c18 -2 50 -2 70 0 21 2 7 4 -32 4 -38 0 -55 -2 -38 -4z"/>
<path d="M8063 6013 c9 -2 25 -2 35 0 9 3 1 5 -18 5 -19 0 -27 -2 -17 -5z"/>
<path d="M7540 6000 c-12 -8 -9 -10 13 -10 16 0 26 4 22 10 -8 12 -16 12 -35
0z"/>
<path d="M7635 6000 c-4 -6 12 -10 39 -10 25 0 46 5 46 10 0 6 -18 10 -39 10
-22 0 -43 -4 -46 -10z"/>
<path d="M7740 6000 c0 -13 11 -13 30 0 12 8 11 10 -7 10 -13 0 -23 -4 -23
-10z"/>
<path d="M7853 6003 c9 -2 25 -2 35 0 9 3 1 5 -18 5 -19 0 -27 -2 -17 -5z"/>
<path d="M7480 5990 c0 -5 7 -10 16 -10 8 0 12 5 9 10 -3 6 -10 10 -16 10 -5
0 -9 -4 -9 -10z"/>
<path d="M9470 5975 c-13 -14 -29 -25 -36 -25 -7 0 -19 -7 -28 -15 -8 -8 -27
-20 -43 -27 -22 -9 -24 -12 -10 -15 9 -3 41 9 70 26 60 34 109 81 85 81 -8 0
-25 -11 -38 -25z"/>
<path d="M7440 5880 c0 -5 5 -10 11 -10 5 0 7 5 4 10 -3 6 -8 10 -11 10 -2 0
-4 -4 -4 -10z"/>
<path d="M6465 5862 c10 -10 61 -13 535 -32 151 -6 383 -17 515 -25 132 -8
254 -13 270 -13 17 1 64 -2 105 -6 41 -3 127 -8 190 -11 63 -2 141 -7 173 -11
40 -5 57 -3 57 5 0 10 -11 13 -70 15 -43 2 -282 17 -350 21 -125 9 -277 18
-540 30 -248 12 -348 16 -515 20 -99 3 -225 7 -280 11 -67 4 -97 3 -90 -4z"/>
<path d="M13571 5799 c-1 -71 -41 -156 -99 -216 -58 -58 -214 -143 -263 -143
-16 0 -45 -6 -63 -14 -34 -14 -118 -27 -216 -32 -129 -8 -461 -8 -535 -2 -72
7 -210 17 -290 22 -16 1 -35 5 -41 9 -6 3 -42 7 -80 7 -38 0 -85 2 -104 4 -80
9 -444 36 -554 41 -66 3 -122 8 -125 10 -3 2 -87 6 -186 10 -224 9 -269 11
-375 20 -129 10 -221 12 -226 3 -7 -11 124 -22 421 -33 73 -3 291 -17 685 -45
80 -6 208 -15 285 -20 77 -5 203 -17 280 -25 321 -36 679 -58 802 -50 119 8
321 34 340 43 25 13 115 42 129 42 19 0 115 68 137 98 12 15 24 29 28 32 4 3
19 30 33 60 30 61 44 161 28 200 -10 23 -11 20 -11 -21z"/>
<path d="M8685 5789 c-10 -15 3 -25 16 -12 7 7 7 13 1 17 -6 3 -14 1 -17 -5z"/>
<path d="M8760 5780 c0 -5 7 -10 15 -10 8 0 15 5 15 10 0 6 -7 10 -15 10 -8 0
-15 -4 -15 -10z"/>
<path d="M8845 5780 c-3 -5 -1 -10 4 -10 6 0 11 5 11 10 0 6 -2 10 -4 10 -3 0
-8 -4 -11 -10z"/>
<path d="M8325 5770 c-3 -5 3 -10 15 -10 12 0 18 5 15 10 -3 6 -10 10 -15 10
-5 0 -12 -4 -15 -10z"/>
<path d="M8408 5763 c23 -2 59 -2 80 0 20 2 1 4 -43 4 -44 0 -61 -2 -37 -4z"/>
<path d="M8580 5760 c0 -5 5 -10 11 -10 5 0 7 5 4 10 -3 6 -8 10 -11 10 -2 0
-4 -4 -4 -10z"/>
<path d="M8953 5763 c9 -2 23 -2 30 0 6 3 -1 5 -18 5 -16 0 -22 -2 -12 -5z"/>
<path d="M9110 5760 c0 -5 5 -10 10 -10 6 0 10 5 10 10 0 6 -4 10 -10 10 -5 0
-10 -4 -10 -10z"/>
<path d="M9320 5750 c0 -5 5 -10 11 -10 5 0 7 5 4 10 -3 6 -8 10 -11 10 -2 0
-4 -4 -4 -10z"/>
<path d="M8753 5743 c9 -2 25 -2 35 0 9 3 1 5 -18 5 -19 0 -27 -2 -17 -5z"/>
<path d="M8818 5743 c7 -3 16 -2 19 1 4 3 -2 6 -13 5 -11 0 -14 -3 -6 -6z"/>
<path d="M8958 5733 c12 -2 30 -2 40 0 9 3 -1 5 -23 4 -22 0 -30 -2 -17 -4z"/>
<path d="M9460 5560 c0 -5 7 -10 15 -10 8 0 15 5 15 10 0 6 -7 10 -15 10 -8 0
-15 -4 -15 -10z"/>
<path d="M9408 5553 c7 -3 16 -2 19 1 4 3 -2 6 -13 5 -11 0 -14 -3 -6 -6z"/>
<path d="M9705 5549 c-39 -5 -39 -6 -12 -13 15 -5 38 -5 51 -2 14 3 35 2 49
-3 13 -5 29 -6 36 -2 18 12 -77 27 -124 20z"/>
<path d="M9628 5543 c7 -3 16 -2 19 1 4 3 -2 6 -13 5 -11 0 -14 -3 -6 -6z"/>
<path d="M9860 5530 c20 -13 123 -13 115 0 -3 6 -34 10 -68 10 -44 0 -58 -3
-47 -10z"/>
<path d="M9998 5529 c-16 -11 -16 -11 176 -15 83 -1 159 -5 170 -7 12 -3 30
-2 41 3 19 7 18 8 -5 14 -41 9 -368 13 -382 5z"/>
<path d="M935 4355 c-30 -14 -29 -14 24 -12 33 1 56 7 59 15 5 17 -45 15 -83
-3z"/>
<path d="M960 4300 c-12 -8 -9 -10 13 -10 15 0 27 5 27 10 0 13 -20 13 -40 0z"/>
</g>
</svg>
